<svg xmlns="http://www.w3.org/2000/svg" viewBox="-0.1 -0.125 10.64 3.26">
	<path d="M 0 0 C 0.058 1.266 0.02 3.045 0.338 3.03 C 0.919 3.016 0.316 -0.005 0.986 -0.005 C 1.387 0.004 1.033 2.997 1.531 3.006 C 2.056 3.016 1.559 -0.005 2.229 -0.005 C 2.802 0.023 2.181 2.997 2.793 2.987 C 3.51 3.016 2.927 0.004 3.539 0.004 C 4.064 0.033 3.663 2.987 4.217 3.035 C 4.81 3.073 4.17 -0.015 4.858 0.004 C 5.374 0.052 4.839 2.987 5.547 3.006 C 6.292 3.016 5.384 -0.015 6.168 0.004 C 6.962 0.033 6.158 2.959 7.086 2.997 C 7.669 2.997 7.115 -0.005 7.774 -0.025 C 8.291 0.014 7.918 3.035 8.597 3.035 C 9.304 3.045 8.53 -0.005 9.266 0.004 C 9.935 0.004 9.543 3.016 10.442 2.987" stroke="#000" stroke-width="0.1" fill="none"/>
</svg>